<svg width="32" height="32" xmlns="http://www.w3.org/2000/svg">
  <g fill="none" fill-rule="evenodd">
    <rect fill="#75FA8F" width="32" height="32" rx="5"/>
    <g fill="#000" fill-rule="nonzero">
      <path d="M17.225316 7.148288c-.1706624.0617472-.3460352.0897152-.5178624.09088v.0023296h-1.42768643V7.239168c-.17184 0-.3472128-.027968-.5178752-.09088-.7862144-.28544-1.1899264-1.1487488-.9015552-1.92701184.2247936-.60583168.802688-.98098098 1.4194304-.9833111V4.2368h1.42768643v.00233012c.6167296.00233013 1.1946368.37631436 1.4194304.98331212.2883584.77709696-.1141632 1.64040576-.901568 1.92584576zM18.747108 11.2539648c-.7862272.28544-1.658368-.114176-1.9467264-.8924416-.2883584-.7782528.1153408-1.6415616.901568-1.9270016.7862272-.28544 1.658304.114176 1.946688.8924288.289536.7782656-.114176 1.6415744-.9015296 1.9270144zM18.323428 14.4671232c-.2883584-.7782656.1153536-1.6415744.9015296-1.9270144.786304-.28544 1.658368.114176 1.946752.8924416.288384.7782528-.115328 1.6415616-.901504 1.9270016-.787456.2854528-1.6584064-.114176-1.9467776-.8924288zM20.7468776 16.6458368c.786176-.28544 1.658368.114176 1.946752.8924672.288384.77824-.115328 1.6416-.901632 1.92704-.786176.28544-1.658368-.114176-1.946752-.892544-.289536-.779392.114176-1.6415232.901632-1.9269632zM22.2686696 20.750464c.786304-.28544 1.658368.114176 1.946752.892416l1.52192 4.105728c.288256.77824-.115328 1.6416-.901632 1.92704-.786176.28544-1.658368-.114176-1.946752-.892544l-1.452416-3.947136c-.025856-.051328-.049408-.102528-.069376-.157312-.021248-.055936-.037632-.113024-.05056-.170112l-.00128-.002304c-.17408-.731648.224896-1.490176.953344-1.755776zM15.18673677 10.3615232L13.66490637 14.4672c-.2883584.7782656-1.1604992 1.1778816-1.9467264.8924416-.7862144-.28544-1.1899264-1.1487488-.901568-1.9270144l1.5218432-4.1056768c.2883584-.7782528 1.1604992-1.1778688 1.9467136-.8924288.7862272.28544 1.1899264 1.1487488.901568 1.9270016zM10.19514637 19.465216c-.7862144-.28544-1.1899264-1.1488-.901568-1.92704.225984-.6092928.8085888-.984448 1.428864-.9832832v-.0023296h6.54636803v.0023296c.1741824 0 .3495552.027968.5225728.09088.7862272.28544 1.1899904 1.1487872.901568 1.9270272-.2248064.608128-.8062336.983296-1.4241408.983296v.002304h-6.54636803v-.002304c-.1741952 0-.3531008-.027904-.527296-.09088zM7.77178637 21.64288c.2883584-.77824 1.1604992-1.177856 1.9467264-.892416.7862272.28544 1.1899264 1.1488.901568 1.92704s-1.1604992 1.177856-1.9467264.892416c-.7862272-.28544-1.1899264-1.147648-.901568-1.92704zM6.2499273 25.74848c.2883589-.77824 1.16049715-1.177856 1.94671667-.892416.7862144.28544 1.1899264 1.1488.901568 1.92704s-1.1604992 1.177856-1.94672128.892416c-.78621952-.28544-1.18992256-1.1488-.9015634-1.92704z"/>
    </g>
  </g>
</svg>
