<svg width="110" height="50" version="1.1" id="Layer_1" xmlns="http://www.w3.org/2000/svg" x="0" y="0" viewBox="0 0 587 253" xml:space="preserve"><path fill="#000000" d="M45.86 141.74c.74-.01 1.49-.13 2.23-.4 3.38-1.24 5.12-4.99 3.88-8.38-.97-2.63-3.46-4.26-6.11-4.27v-.01h-6.14v.01c-2.65.01-5.14 1.64-6.11 4.27-1.24 3.38.49 7.13 3.88 8.38.74.27 1.49.39 2.23.39v.01h6.14zM27.06 150.8c-1.24 3.38.49 7.13 3.88 8.38 3.38 1.24 7.13-.49 8.38-3.88 1.24-3.38-.49-7.13-3.88-8.38-3.38-1.24-7.13.5-8.38 3.88zM32.77 173.14c1.24-3.38-.49-7.13-3.88-8.38s-7.13.49-8.38 3.88c-1.24 3.38.49 7.13 3.88 8.38 3.39 1.24 7.14-.49 8.38-3.88zM22.34 182.61c-3.38-1.24-7.13.49-8.38 3.88-1.24 3.38.49 7.13 3.88 8.38 3.38 1.24 7.13-.49 8.38-3.88s-.49-7.14-3.88-8.38zM15.8 200.45c-3.38-1.24-7.13.49-8.38 3.88L.87 222.17c-1.24 3.38.49 7.13 3.88 8.38s7.13-.49 8.38-3.88l6.25-17.16c.11-.22.21-.45.3-.69.09-.25.16-.49.22-.74v-.01c.75-3.17-.97-6.47-4.1-7.62zM52.81 173.14c1.24 3.38 4.99 5.12 8.38 3.88s5.12-4.99 3.88-8.38l-6.55-17.84c-1.24-3.38-4.99-5.12-8.38-3.88-3.38 1.24-5.12 4.99-3.88 8.38l6.55 17.84zM71.61 186.49c-.97-2.65-3.48-4.28-6.15-4.27v-.01H37.3v.01c-.75 0-1.51.12-2.25.39-3.38 1.24-5.12 4.99-3.88 8.38.97 2.64 3.47 4.27 6.13 4.27v.01h28.16v-.01c.75 0 1.52-.12 2.27-.39 3.39-1.25 5.12-5 3.88-8.38zM78.16 204.33c-1.24-3.38-4.99-5.12-8.38-3.88s-5.12 4.99-3.88 8.38c1.24 3.38 4.99 5.12 8.38 3.88 3.39-1.25 5.12-5 3.88-8.38zM76.33 218.3c-3.38 1.24-5.12 4.99-3.88 8.38 1.24 3.38 4.99 5.12 8.38 3.88s5.12-4.99 3.88-8.38c-1.24-3.39-4.99-5.13-8.38-3.88zM125.2 185.68c-12.59-2.55-19.67-4.1-19.67-12.03 0-5.8 4.24-10.47 14.71-10.47 10.89 0 16.13 4.24 17.26 13.87h11.74c-1.7-14.29-10.61-22.92-28.72-22.92-16.98 0-26.31 7.92-26.31 20.09 0 15.99 12.87 18.96 27.31 21.93 13.44 2.83 19.1 4.95 19.1 13.16 0 6.79-4.95 12.03-16.98 12.03-10.89 0-19.38-3.54-20.94-16.27H90.96c1.13 16.41 12.31 25.89 32.4 25.89 16.84 0 28.86-7.5 28.86-22.21 0-16.85-12.31-20.1-27.02-23.07zM192.82 185.68c-12.59-2.55-19.66-4.1-19.66-12.03 0-5.8 4.24-10.47 14.71-10.47 10.89 0 16.13 4.24 17.26 13.87h11.74c-1.7-14.29-10.61-22.92-28.72-22.92-16.98 0-26.32 7.92-26.32 20.09 0 15.99 12.87 18.96 27.31 21.93 13.44 2.83 19.1 4.95 19.1 13.16 0 6.79-4.95 12.03-16.98 12.03-10.89 0-19.38-3.54-20.94-16.27h-11.74c1.13 16.41 12.31 25.89 32.4 25.89 16.84 0 28.86-7.5 28.86-22.21.01-16.85-12.3-20.1-27.02-23.07zM262.86 153.84c-20.8 0-34.66 17.26-34.66 38.48s13.02 38.48 35.37 38.48c16.55 0 28.01-8.91 31.41-24.62H283.8c-2.55 9.9-9.62 15-20.23 15-14.71 0-22.78-11.32-23.63-26.17h56.59c0-24.19-11.74-41.17-33.67-41.17zm-22.64 32.54c1.7-13.3 9.05-23.49 22.64-23.49 13.16 0 20.66 8.91 21.36 23.49h-44zM382.69 153.99c-8.91 0-17.69 4.67-22.35 13.02h-.28c-3.11-8.49-10.19-13.02-19.1-13.02-9.2 0-16.98 5.09-21.51 12.17h-.28v-10.47H307.7v73.14h11.46v-45.56c0-11.46 9.9-19.67 18.82-19.67 7.5 0 12.59 5.38 12.59 14.43v50.79h11.46v-45.56c0-11.46 8.49-19.67 17.97-19.67 7.36 0 13.44 5.38 13.44 14.43v50.79h11.46v-51.36c0-15.12-9.2-23.46-22.21-23.46zM455.27 153.99c-10.61 0-17.97 4.67-23.49 12.17h-.28v-38.48h-11.46v101.16h11.46v-9.62h.28c5.94 8.21 13.16 11.74 23.06 11.74 19.81 0 31.55-15 31.55-38.48 0-24.35-12.59-38.49-31.12-38.49zm-1.28 67.34c-15.56 0-23.2-12.31-23.2-28.72 0-15.85 7.36-28.86 23.34-28.86 13.87 0 20.51 12.45 20.51 28.86.01 16.55-6.64 28.72-20.65 28.72zM498.28 127.67h11.46v101.16h-11.46zM574.67 155.68l-16.69 45.56c-2.26 6.08-4.81 14.29-4.81 14.29h-.28s-2.69-8.21-4.95-14.29l-17.26-45.56h-12.45l28.58 71.02-2.83 7.21c-2.83 7.07-6.08 8.91-10.89 8.91-3.82 0-6.23-.71-7.78-1.56h-.56v10.19c3.11 1.27 5.94 1.56 10.33 1.56 8.91 0 14.57-3.11 20.51-18.25l31.27-79.09h-12.19zM72.59 93.09c4.81-4.81 7.21-11.46 7.21-19.95 0-13.3-7.36-21.65-19.24-25.32v-.28c10.47-3.96 14.86-10.89 14.86-22.35 0-8.06-2.83-14.43-7.78-18.68C62.83 2.26 56.04 0 47.97 0H6.52v101.16h43.01c10.18 0 17.97-3.12 23.06-8.07zM13.88 6.65h34.24c12.03 0 19.81 6.65 19.81 19.1 0 11.46-6.79 19.52-19.24 19.52h-34.8V6.65zm0 87.72V51.78h35.65c13.86 0 22.78 7.92 22.78 21.08 0 6.79-1.84 11.74-5.38 15.28-3.82 3.82-9.9 6.23-17.97 6.23H13.88zM113.9 102.85c12.31 0 18.67-5.8 23.48-12.87h.28v11.18h6.93V28.01h-6.93v46.26c0 12.87-9.62 22.64-22.49 22.64-10.89 0-17.83-5.38-17.83-17.4v-51.5h-6.93v52.21c.01 14.57 10.05 22.63 23.49 22.63zM159.17 28.01h6.93v73.14h-6.93zM159.17 0h6.93v11.32h-6.93zM181.1 0h6.93v101.16h-6.93zM229.91 103c11.46 0 19.24-4.95 24.62-14.01h.28v12.17h6.93V0h-6.93v41.31h-.28c-4.67-9.34-13.02-14.85-24.76-14.85-16.98 0-30.7 14.01-30.7 38.34 0 21.78 11.32 38.2 30.84 38.2zm.43-70.6c16.27 0 25.18 14.01 25.18 32.54 0 19.38-9.48 32.26-25.33 32.26-16.41 0-24.05-14.71-24.05-32.26.01-19.53 9.2-32.54 24.2-32.54zM385.96 69.89c-2.12 8.21-5.09 21.79-5.09 21.79h-.28s-3.26-13.44-5.23-20.94L356.39 0h-7.78L329.8 71.02c-1.98 7.5-5.09 20.66-5.09 20.66h-.28s-3.11-14.01-5.23-21.79L300.51 0h-7.36l27.3 101.16h8.21l19.81-75.27c1.84-6.93 3.96-17.12 3.96-17.12h.28s2.12 10.33 3.96 17.12l19.81 75.27h7.92L411.29 0h-7.07l-18.26 69.89zM420.34 28.01h6.93v73.14h-6.93zM420.34 0h6.93v11.32h-6.93zM448.07 89.27c0 8.63 4.95 12.45 12.45 12.45 2.97 0 5.09-.42 7.36-1.27v-5.94h-.42c-1.27.71-3.68 1.27-5.52 1.27-4.81 0-6.93-1.7-6.93-7.07v-54.9h13.3v-5.8h-13.3V5.94h-6.93v22.07h-11.32v5.8h11.32v55.46zM528.29 49.66v51.5h6.93V48.95c0-14.57-9.9-22.35-22.35-22.35s-20.66 5.94-25.47 13.72h-.28V0h-6.93v101.16h6.93V53.9c0-12.17 11.46-21.36 24.48-21.36 10.18 0 16.69 5.09 16.69 17.12z"></path><g><path d="M45.86-167.26c.74-.01 1.49-.13 2.23-.4 3.38-1.24 5.12-4.99 3.88-8.38-.97-2.63-3.46-4.26-6.11-4.27v-.01h-6.14v.01c-2.65.01-5.14 1.64-6.11 4.27-1.24 3.38.49 7.13 3.88 8.38.74.27 1.49.39 2.23.39v.01h6.14zM27.06-158.2c-1.24 3.38.49 7.13 3.88 8.38 3.38 1.24 7.13-.49 8.38-3.88 1.24-3.38-.49-7.13-3.88-8.38-3.38-1.24-7.13.5-8.38 3.88zM32.77-135.86c1.24-3.38-.49-7.13-3.88-8.38s-7.13.49-8.38 3.88c-1.24 3.38.49 7.13 3.88 8.38 3.39 1.24 7.14-.49 8.38-3.88zM22.34-126.39c-3.38-1.24-7.13.49-8.38 3.88-1.24 3.38.49 7.13 3.88 8.38 3.38 1.24 7.13-.49 8.38-3.88s-.49-7.14-3.88-8.38zM15.8-108.55c-3.38-1.24-7.13.49-8.38 3.88L.87-86.83c-1.24 3.38.49 7.13 3.88 8.38s7.13-.49 8.38-3.88l6.25-17.16c.11-.22.21-.45.3-.69.09-.25.16-.49.22-.74v-.01c.75-3.17-.97-6.47-4.1-7.62zM52.81-135.86c1.24 3.38 4.99 5.12 8.38 3.88s5.12-4.99 3.88-8.38l-6.55-17.84c-1.24-3.38-4.99-5.12-8.38-3.88-3.38 1.24-5.12 4.99-3.88 8.38l6.55 17.84zM71.61-122.51c-.97-2.65-3.48-4.28-6.15-4.27v-.01H37.3v.01c-.75 0-1.51.12-2.25.39-3.38 1.24-5.12 4.99-3.88 8.38.97 2.64 3.47 4.27 6.13 4.27v.01h28.16v-.01c.75 0 1.52-.12 2.27-.39 3.39-1.25 5.12-5 3.88-8.38zM78.16-104.67c-1.24-3.38-4.99-5.12-8.38-3.88s-5.12 4.99-3.88 8.38c1.24 3.38 4.99 5.12 8.38 3.88 3.39-1.25 5.12-5 3.88-8.38zM76.33-90.7c-3.38 1.24-5.12 4.99-3.88 8.38 1.24 3.38 4.99 5.12 8.38 3.88s5.12-4.99 3.88-8.38c-1.24-3.39-4.99-5.13-8.38-3.88zM125.2-123.32c-12.59-2.55-19.67-4.1-19.67-12.03 0-5.8 4.24-10.47 14.71-10.47 10.89 0 16.13 4.24 17.26 13.87h11.74c-1.7-14.29-10.61-22.92-28.72-22.92-16.98 0-26.31 7.92-26.31 20.09 0 15.99 12.87 18.96 27.31 21.93 13.44 2.83 19.1 4.95 19.1 13.16 0 6.79-4.95 12.03-16.98 12.03-10.89 0-19.38-3.54-20.94-16.27H90.96c1.13 16.41 12.31 25.89 32.4 25.89 16.84 0 28.86-7.5 28.86-22.21 0-16.85-12.31-20.1-27.02-23.07zM192.82-123.32c-12.59-2.55-19.66-4.1-19.66-12.03 0-5.8 4.24-10.47 14.71-10.47 10.89 0 16.13 4.24 17.26 13.87h11.74c-1.7-14.29-10.61-22.92-28.72-22.92-16.98 0-26.32 7.92-26.32 20.09 0 15.99 12.87 18.96 27.31 21.93 13.44 2.83 19.1 4.95 19.1 13.16 0 6.79-4.95 12.03-16.98 12.03-10.89 0-19.38-3.54-20.94-16.27h-11.74c1.13 16.41 12.31 25.89 32.4 25.89 16.84 0 28.86-7.5 28.86-22.21.01-16.85-12.3-20.1-27.02-23.07zM262.86-155.16c-20.8 0-34.66 17.26-34.66 38.48s13.02 38.48 35.37 38.48c16.55 0 28.01-8.91 31.41-24.62H283.8c-2.55 9.9-9.62 15-20.23 15-14.71 0-22.78-11.32-23.63-26.17h56.59c0-24.19-11.74-41.17-33.67-41.17zm-22.64 32.54c1.7-13.3 9.05-23.49 22.64-23.49 13.16 0 20.66 8.91 21.36 23.49h-44zM382.69-155.01c-8.91 0-17.69 4.67-22.35 13.02h-.28c-3.11-8.49-10.19-13.02-19.1-13.02-9.2 0-16.98 5.09-21.51 12.17h-.28v-10.47H307.7v73.14h11.46v-45.56c0-11.46 9.9-19.67 18.82-19.67 7.5 0 12.59 5.38 12.59 14.43v50.79h11.46v-45.56c0-11.46 8.49-19.67 17.97-19.67 7.36 0 13.44 5.38 13.44 14.43v50.79h11.46v-51.36c0-15.12-9.2-23.46-22.21-23.46zM455.27-155.01c-10.61 0-17.97 4.67-23.49 12.17h-.28v-38.48h-11.46v101.16h11.46v-9.62h.28c5.94 8.21 13.16 11.74 23.06 11.74 19.81 0 31.55-15 31.55-38.48 0-24.35-12.59-38.49-31.12-38.49zm-1.28 67.34c-15.56 0-23.2-12.31-23.2-28.72 0-15.85 7.36-28.86 23.34-28.86 13.87 0 20.51 12.45 20.51 28.86.01 16.55-6.64 28.72-20.65 28.72zM498.28-181.33h11.46v101.16h-11.46zM574.67-153.32l-16.69 45.56c-2.26 6.08-4.81 14.29-4.81 14.29h-.28s-2.69-8.21-4.95-14.29l-17.26-45.56h-12.45l28.58 71.02-2.83 7.21c-2.83 7.07-6.08 8.91-10.89 8.91-3.82 0-6.23-.71-7.78-1.56h-.56v10.19c3.11 1.27 5.94 1.56 10.33 1.56 8.91 0 14.57-3.11 20.51-18.25l31.27-79.09h-12.19zM72.59-215.91c4.81-4.81 7.21-11.46 7.21-19.95 0-13.3-7.36-21.65-19.24-25.32v-.28c10.47-3.96 14.86-10.89 14.86-22.35 0-8.06-2.83-14.43-7.78-18.68-4.81-4.24-11.6-6.51-19.67-6.51H6.52v101.16h43.01c10.18 0 17.97-3.12 23.06-8.07zm-58.71-86.44h34.24c12.03 0 19.81 6.65 19.81 19.1 0 11.46-6.79 19.52-19.24 19.52h-34.8v-38.62zm0 87.72v-42.59h35.65c13.86 0 22.78 7.92 22.78 21.08 0 6.79-1.84 11.74-5.38 15.28-3.82 3.82-9.9 6.23-17.97 6.23H13.88zM113.9-206.15c12.31 0 18.67-5.8 23.48-12.87h.28v11.18h6.93v-73.14h-6.93v46.26c0 12.87-9.62 22.64-22.49 22.64-10.89 0-17.83-5.38-17.83-17.4v-51.5h-6.93v52.21c.01 14.56 10.05 22.62 23.49 22.62zM159.17-280.99h6.93v73.14h-6.93zM159.17-309h6.93v11.32h-6.93zM181.1-309h6.93v101.16h-6.93zM229.91-206c11.46 0 19.24-4.95 24.62-14.01h.28v12.17h6.93V-309h-6.93v41.31h-.28c-4.67-9.34-13.02-14.85-24.76-14.85-16.98 0-30.7 14.01-30.7 38.34 0 21.78 11.32 38.2 30.84 38.2zm.43-70.6c16.27 0 25.18 14.01 25.18 32.54 0 19.38-9.48 32.26-25.33 32.26-16.41 0-24.05-14.71-24.05-32.26.01-19.53 9.2-32.54 24.2-32.54zM385.96-239.11c-2.12 8.21-5.09 21.79-5.09 21.79h-.28s-3.26-13.44-5.23-20.94L356.39-309h-7.78l-18.82 71.02c-1.98 7.5-5.09 20.66-5.09 20.66h-.28s-3.11-14.01-5.23-21.79L300.51-309h-7.36l27.3 101.16h8.21l19.81-75.27c1.84-6.93 3.96-17.12 3.96-17.12h.28s2.12 10.33 3.96 17.12l19.81 75.27h7.92L411.29-309h-7.07l-18.26 69.89zM420.34-280.99h6.93v73.14h-6.93zM420.34-309h6.93v11.32h-6.93zM448.07-219.73c0 8.63 4.95 12.45 12.45 12.45 2.97 0 5.09-.42 7.36-1.27v-5.94h-.42c-1.27.71-3.68 1.27-5.52 1.27-4.81 0-6.93-1.7-6.93-7.07v-54.89h13.3v-5.8h-13.3v-22.07h-6.93v22.07h-11.32v5.8h11.32v55.45zM528.29-259.34v51.5h6.93v-52.21c0-14.57-9.9-22.35-22.35-22.35s-20.66 5.94-25.47 13.72h-.28V-309h-6.93v101.16h6.93v-47.25c0-12.17 11.46-21.36 24.48-21.36 10.18-.01 16.69 5.08 16.69 17.11z"></path></g></svg>